<svg fill="none" height="47" viewBox="0 0 145 47" width="145" xmlns="http://www.w3.org/2000/svg"><g fill="#ff6060"><path d="m13.8398 23.9482-7.74523 7.9401v11.1417h-6.09457v-43.03h6.09457v24.0763l23.10863-24.0763h6.9833l-18.1567 19.3379 19.4264 23.6921h-7.1103z"/><path d="m81.8958 39.5722 2.4124-4.6103c2.7933 1.9209 7.1103 3.3297 11.3003 3.3297 5.4595 0 7.6185-1.6649 7.6185-4.4823 0-7.2998-20.4425-1.0246-20.4425-13.9592 0-5.891 5.2058-9.7329 13.4589-9.7329 4.1896 0 9.0146 1.1526 11.8086 2.9455l-2.54 4.6103c-2.92-1.921-6.0944-2.5613-9.2686-2.5613-5.0788 0-7.6182 1.921-7.6182 4.4823 0 7.6839 20.4418 1.4087 20.4418 14.0872 0 5.891-5.332 9.6049-13.9663 9.6049-5.2058.1281-10.5386-1.5368-13.2049-3.7139z"/><path d="m145 23.3079v19.7221h-5.587v-4.3542c-1.904 2.9455-5.586 4.6103-10.665 4.6103-7.364 0-11.935-3.97-11.935-9.6049 0-5.2507 3.301-9.4768 12.951-9.4768h9.268v-1.1526c0-4.9946-2.92-7.812-8.634-7.812-3.809 0-7.745 1.4087-10.284 3.4578l-2.413-4.4823c3.302-2.6894 8.127-4.22619 13.332-4.22619 9.015.12809 13.967 4.48229 13.967 13.31879zm-5.841 9.733v-4.6104h-9.014c-5.841 0-7.492 2.3052-7.492 4.9946 0 3.2016 2.667 5.2507 7.111 5.2507 4.444.128 7.999-1.793 9.395-5.6349z"/><path d="m63.1042 34.4496v8.7084l3.6822-2.1771v-8.7084z"/><path d="m73.2619 23.8202-15.1095-8.8365-8.38-4.8665-8.2531 14.4714.127 13.5749 14.9825 8.8365 1.5236-.8965v-12.8065l6.7295-11.9101 6.8564 3.9701v12.8065l1.5236-.8965z"/></g></svg>